<?xml version="1.0" encoding="UTF-8"?>
<svg id="Layer_1" xmlns="http://www.w3.org/2000/svg" version="1.1" viewBox="0 0 870 215">
  <!-- Generator: Adobe Illustrator 29.3.0, SVG Export Plug-In . SVG Version: 2.1.0 Build 146)  -->
  <defs>
    <style>
      .st0 {
        fill: #b48936;
      }

      .st1 {
        fill: none;
        stroke: #000;
        stroke-miterlimit: 10;
        stroke-width: 3.5px;
      }
    </style>
  </defs>
  <g>
    <path d="M342.1,58.3c0,.2,0,.4-.2.5-.1.1-.3.3-.5.3-.3,0-.6.2-1,.2s-.9,0-1.5,0-1.1,0-1.5,0c-.4,0-.7-.1-1-.2-.2,0-.4-.2-.5-.3s-.2-.3-.2-.5V17h0l-16.7,41.5c0,.2-.2.3-.3.4-.1.1-.3.2-.6.3-.3,0-.6.1-.9.2-.4,0-.8,0-1.3,0s-1,0-1.3,0-.7-.1-.9-.2c-.2,0-.4-.2-.6-.3-.1-.1-.2-.3-.3-.4l-16-41.5h0v41.3c0,.2,0,.4-.2.5-.1.1-.3.3-.5.3-.3,0-.6.2-1,.2-.4,0-.9,0-1.5,0s-1.1,0-1.5,0-.7-.1-1-.2c-.2,0-.4-.2-.5-.3,0-.1-.1-.3-.1-.5V14.7c0-1,.3-1.8.8-2.2.5-.4,1.2-.7,1.8-.7h3.9c.8,0,1.5,0,2.1.2s1.1.4,1.6.7c.4.3.8.7,1.1,1.2.3.5.6,1.1.8,1.7l13.5,34.3h.2l14.1-34.2c.3-.7.6-1.4.9-1.9.3-.5.7-.9,1.1-1.2.4-.3.8-.5,1.3-.7.5-.1,1-.2,1.6-.2h4.1c.4,0,.7,0,1.1.2.3.1.6.3.9.5s.4.5.6.9.2.8.2,1.3v43.6Z"/>
    <path d="M394.4,35c0,3.8-.5,7.3-1.4,10.4-.9,3.1-2.3,5.7-4,7.9-1.8,2.2-4,3.8-6.8,5s-5.9,1.7-9.5,1.7-6.6-.5-9.2-1.6c-2.6-1.1-4.7-2.6-6.4-4.6-1.7-2-3-4.5-3.8-7.5-.8-3-1.2-6.5-1.2-10.4s.5-7.1,1.4-10.2c.9-3.1,2.3-5.6,4.1-7.8,1.8-2.1,4.1-3.8,6.8-4.9s5.9-1.7,9.5-1.7,6.5.5,9.1,1.6c2.6,1,4.7,2.6,6.5,4.6,1.7,2,3,4.5,3.8,7.5.8,3,1.3,6.4,1.3,10.2ZM387.7,35.4c0-2.7-.2-5.2-.7-7.5-.5-2.3-1.3-4.3-2.4-6-1.1-1.7-2.6-3-4.4-4-1.9-1-4.1-1.4-6.9-1.4s-5,.5-6.9,1.5c-1.9,1-3.4,2.4-4.5,4.1s-2,3.7-2.5,6c-.5,2.3-.7,4.7-.7,7.2s.2,5.3.7,7.7c.5,2.3,1.2,4.4,2.3,6.1,1.1,1.7,2.6,3,4.4,4,1.8.9,4.2,1.4,6.9,1.4s5.1-.5,6.9-1.5c1.9-1,3.4-2.4,4.5-4.2,1.1-1.7,2-3.8,2.5-6.1.5-2.3.7-4.7.7-7.3Z"/>
    <path d="M440,41.7c0,2.9-.4,5.5-1.3,7.7-.8,2.3-2,4.2-3.6,5.7s-3.5,2.7-5.7,3.6c-2.2.8-4.8,1.2-7.7,1.2s-5-.4-7.1-1.1c-2.1-.8-4-1.9-5.5-3.4s-2.7-3.3-3.6-5.5c-.8-2.2-1.2-4.8-1.2-7.7V12.8c0-.2,0-.4.1-.5,0-.1.3-.3.5-.3.2,0,.6-.2,1-.2.4,0,.9,0,1.5,0s1.1,0,1.5,0c.4,0,.7.1,1,.2s.4.2.5.3c0,.1.1.3.1.5v28.6c0,2.2.3,4.1.8,5.7.5,1.6,1.3,3,2.3,4.1,1,1.1,2.2,1.9,3.7,2.5,1.4.5,3,.8,4.8.8s3.5-.3,4.9-.8c1.4-.5,2.6-1.3,3.6-2.4,1-1.1,1.7-2.4,2.3-4,.5-1.6.8-3.4.8-5.6V12.8c0-.2,0-.4.1-.5s.3-.3.5-.3.6-.2,1-.2c.4,0,.9,0,1.5,0s1.1,0,1.5,0,.7.1,1,.2c.2,0,.4.2.5.3s.2.3.2.5v28.9Z"/>
    <path d="M471.6,58.2c0,.3-.2.5-.4.7s-.4.3-.7.4c-.3,0-.7.2-1.2.2-.5,0-1.1,0-1.8,0s-1,0-1.4,0c-.4,0-.8,0-1,0s-.5-.1-.8-.2c-.2,0-.4-.1-.5-.2s-.3-.2-.3-.3c0-.1-.2-.3-.2-.5l-15.5-44c-.2-.5-.3-1-.3-1.3,0-.3,0-.6.3-.8.2-.2.6-.3,1.1-.3s1.1,0,2,0,1.2,0,1.6,0c.4,0,.7.1.9.2.2,0,.4.2.5.4.1.2.2.4.3.6l13.6,39.9h0l13.2-39.8c0-.3.2-.5.3-.7s.3-.3.5-.4c.2,0,.6-.2,1-.2.4,0,1,0,1.8,0s1.4,0,1.8,0,.7.2.9.3.2.4.2.8c0,.3-.2.8-.3,1.3l-15.5,44Z"/>
    <path d="M521.4,56.6c0,.4,0,.8,0,1.2,0,.3-.1.6-.3.8-.1.2-.3.4-.4.5s-.3.1-.5.1h-22.7c-.6,0-1.1-.2-1.6-.6-.5-.4-.8-1-.8-2V14.4c0-1,.2-1.6.8-2,.5-.4,1-.6,1.6-.6h22.5c.2,0,.4,0,.5.1.2,0,.3.3.4.5,0,.2.2.5.2.8,0,.3,0,.7,0,1.2s0,.8,0,1.2c0,.3-.1.6-.2.8s-.2.4-.4.5c-.2,0-.3.1-.5.1h-18.5v14.9h15.9c.2,0,.4,0,.5.2.2.1.3.3.4.5.1.2.2.5.2.8s0,.7,0,1.2,0,.8,0,1.1-.1.6-.2.8c-.1.2-.2.3-.4.4-.2,0-.3.1-.5.1h-15.9v17h18.8c.2,0,.4,0,.5.1s.3.2.4.5c.1.2.2.5.3.8,0,.3,0,.7,0,1.2Z"/>
    <path d="M583.2,58.3c0,.2,0,.4-.2.5s-.3.3-.5.3c-.3,0-.6.2-1,.2s-.9,0-1.5,0-1.1,0-1.5,0c-.4,0-.7-.1-1-.2-.2,0-.4-.2-.5-.3-.1-.1-.2-.3-.2-.5V17h0l-16.7,41.5c0,.2-.2.3-.3.4-.1.1-.3.2-.6.3-.3,0-.6.1-.9.2-.4,0-.8,0-1.3,0s-1,0-1.3,0c-.4,0-.7-.1-.9-.2-.2,0-.4-.2-.6-.3-.1-.1-.2-.3-.3-.4l-16-41.5h0v41.3c0,.2,0,.4-.2.5s-.3.3-.5.3c-.3,0-.6.2-1,.2s-.9,0-1.5,0-1.1,0-1.5,0-.7-.1-1-.2c-.2,0-.4-.2-.5-.3s-.1-.3-.1-.5V14.7c0-1,.3-1.8.8-2.2.5-.4,1.2-.7,1.8-.7h3.9c.8,0,1.5,0,2.1.2s1.1.4,1.6.7c.4.3.8.7,1.1,1.2.3.5.6,1.1.8,1.7l13.5,34.3h.2l14.1-34.2c.3-.7.6-1.4.9-1.9.3-.5.7-.9,1.1-1.2.4-.3.8-.5,1.3-.7.5-.1,1-.2,1.6-.2h4.1c.4,0,.7,0,1.1.2.3.1.6.3.9.5.2.2.4.5.6.9s.2.8.2,1.3v43.6Z"/>
    <path d="M622.1,56.6c0,.4,0,.8,0,1.2,0,.3-.1.6-.3.8-.1.2-.3.4-.4.5s-.3.1-.5.1h-22.7c-.6,0-1.1-.2-1.6-.6-.5-.4-.8-1-.8-2V14.4c0-1,.2-1.6.8-2,.5-.4,1-.6,1.6-.6h22.5c.2,0,.4,0,.5.1.2,0,.3.3.4.5,0,.2.2.5.2.8,0,.3,0,.7,0,1.2s0,.8,0,1.2c0,.3-.1.6-.2.8s-.2.4-.4.5c-.2,0-.3.1-.5.1h-18.5v14.9h15.9c.2,0,.4,0,.5.2.2.1.3.3.4.5.1.2.2.5.2.8s0,.7,0,1.2,0,.8,0,1.1-.1.6-.2.8c-.1.2-.2.3-.4.4-.2,0-.3.1-.5.1h-15.9v17h18.8c.2,0,.4,0,.5.1s.3.2.4.5c.1.2.2.5.3.8,0,.3,0,.7,0,1.2Z"/>
    <path d="M668.2,56.6c0,.5,0,.9-.2,1.2-.2.3-.4.6-.6.8-.3.2-.6.4-.9.5-.3,0-.7.1-1,.1h-2.1c-.7,0-1.2,0-1.7-.2s-1-.4-1.4-.7c-.4-.4-.9-.8-1.3-1.4-.4-.6-.9-1.4-1.4-2.3l-14.5-27c-.8-1.4-1.5-2.9-2.3-4.4s-1.5-3-2.1-4.4h0c0,1.8,0,3.6.1,5.4s0,3.7,0,5.5v28.6c0,.2,0,.3-.2.5-.1.2-.3.3-.5.4-.2,0-.6.2-1,.2s-.9,0-1.5,0-1.1,0-1.5,0-.7-.1-.9-.2c-.2,0-.4-.2-.5-.4-.1-.2-.2-.3-.2-.5V14.6c0-1,.3-1.7.8-2.1.6-.4,1.2-.6,1.8-.6h3.1c.7,0,1.3,0,1.8.2.5.1.9.3,1.3.6.4.3.8.7,1.1,1.2.4.5.7,1.1,1.2,1.9l11.1,20.8c.7,1.3,1.3,2.5,2,3.7.6,1.2,1.2,2.4,1.8,3.6s1.2,2.3,1.8,3.5c.6,1.1,1.2,2.3,1.7,3.4h0c0-1.9,0-3.9,0-6,0-2.1,0-4.1,0-6V12.9c0-.2,0-.3.2-.5.1-.1.3-.3.5-.4.2-.1.6-.2,1-.2s.9,0,1.6,0,1.1,0,1.5,0,.7.1,1,.2c.2.1.4.2.5.4.1.1.2.3.2.5v43.7Z"/>
    <path d="M710.5,14.6c0,.5,0,.9,0,1.2,0,.3-.1.6-.2.8-.1.2-.2.4-.4.5s-.3.1-.5.1h-13.3v41.1c0,.2,0,.4-.1.5,0,.1-.3.3-.5.3-.2,0-.6.2-1,.2-.4,0-.9,0-1.5,0s-1.1,0-1.5,0-.7-.1-1-.2c-.2,0-.4-.2-.5-.3,0-.1-.1-.3-.1-.5V17.2h-13.3c-.2,0-.4,0-.5-.1-.2,0-.3-.2-.4-.5,0-.2-.2-.5-.2-.8s0-.7,0-1.2,0-.9,0-1.2.1-.6.2-.9c0-.2.2-.4.4-.5.2,0,.3-.1.5-.1h33c.2,0,.4,0,.5.1s.3.3.4.5c.1.2.2.5.2.9,0,.4,0,.8,0,1.2Z"/>
    <path d="M321.8,117.7c0,1.5-.2,2.9-.6,4.1-.4,1.3-.9,2.4-1.6,3.4-.7,1-1.5,1.9-2.5,2.6-1,.8-2.1,1.4-3.3,1.9-1.2.5-2.5.9-3.9,1.2-1.4.3-3,.4-4.7.4h-12.4c-.6,0-1.1-.2-1.6-.6-.5-.4-.8-1-.8-2v-42.3c0-1,.2-1.6.8-2,.5-.4,1-.6,1.6-.6h10.8c2.8,0,5.2.3,7,.8,1.8.5,3.3,1.3,4.5,2.3,1.2,1,2.1,2.3,2.7,3.8.6,1.5.9,3.2.9,5.1s-.1,2.2-.4,3.2c-.3,1-.7,2-1.2,2.8s-1.2,1.6-2,2.3-1.7,1.2-2.7,1.7c1.3.2,2.5.7,3.6,1.3,1.1.6,2.1,1.5,2.9,2.5.8,1,1.5,2.2,2,3.5.5,1.3.7,2.8.7,4.4ZM312.3,96.5c0-1.1-.2-2.2-.5-3.1-.3-.9-.8-1.7-1.5-2.4s-1.6-1.1-2.7-1.5c-1.1-.3-2.5-.5-4.3-.5h-6.5v15.3h7.2c1.6,0,2.9-.2,3.9-.6,1-.4,1.8-1,2.5-1.7s1.1-1.6,1.4-2.5c.3-1,.5-2,.5-3ZM315.2,118c0-1.4-.2-2.7-.7-3.7-.5-1.1-1.1-2-2-2.7s-1.9-1.3-3.3-1.7c-1.3-.4-2.9-.6-4.9-.6h-7.5v16.7h9.1c1.4,0,2.7-.2,3.8-.5,1.1-.3,2-.8,2.8-1.5.8-.7,1.5-1.5,1.9-2.5s.7-2.2.7-3.5Z"/>
    <path d="M371.1,107c0,3.8-.5,7.3-1.4,10.4-.9,3.1-2.3,5.7-4,7.9-1.8,2.2-4,3.8-6.8,5s-5.9,1.7-9.5,1.7-6.6-.5-9.2-1.6c-2.6-1.1-4.7-2.6-6.4-4.6-1.7-2-3-4.5-3.8-7.5-.8-3-1.2-6.5-1.2-10.4s.5-7.1,1.4-10.2c.9-3.1,2.3-5.6,4.1-7.8,1.8-2.1,4.1-3.8,6.8-4.9s5.9-1.7,9.5-1.7,6.5.5,9.1,1.6c2.6,1,4.7,2.6,6.5,4.6,1.7,2,3,4.5,3.8,7.5.8,3,1.3,6.4,1.3,10.2ZM364.4,107.4c0-2.7-.2-5.2-.7-7.5-.5-2.3-1.3-4.3-2.4-6-1.1-1.7-2.6-3-4.4-4-1.9-1-4.1-1.4-6.9-1.4s-5,.5-6.9,1.5c-1.9,1-3.4,2.4-4.5,4.1s-2,3.7-2.5,6c-.5,2.3-.7,4.7-.7,7.2s.2,5.3.7,7.7c.5,2.3,1.2,4.4,2.3,6.1,1.1,1.7,2.6,3,4.4,4,1.8.9,4.2,1.4,6.9,1.4s5.1-.5,6.9-1.5c1.9-1,3.4-2.4,4.5-4.2,1.1-1.7,2-3.8,2.5-6.1.5-2.3.7-4.7.7-7.3Z"/>
    <path d="M416.6,113.7c0,2.9-.4,5.5-1.3,7.7-.8,2.3-2,4.2-3.6,5.7-1.6,1.6-3.5,2.7-5.7,3.6-2.2.8-4.8,1.2-7.7,1.2s-5-.4-7.1-1.1c-2.1-.8-4-1.9-5.5-3.4s-2.7-3.3-3.6-5.5c-.8-2.2-1.2-4.8-1.2-7.7v-29.4c0-.2,0-.4.1-.5,0-.1.3-.3.5-.3.2,0,.6-.2,1-.2.4,0,.9,0,1.5,0s1.1,0,1.5,0c.4,0,.7.1,1,.2s.4.2.5.3c0,.1.1.3.1.5v28.6c0,2.2.3,4.1.8,5.7.5,1.6,1.3,3,2.3,4.1,1,1.1,2.2,1.9,3.7,2.5,1.4.5,3,.8,4.8.8s3.5-.3,4.9-.8c1.4-.5,2.6-1.3,3.6-2.4,1-1.1,1.7-2.4,2.3-4,.5-1.6.8-3.4.8-5.6v-29c0-.2,0-.4.1-.5,0-.1.3-.3.5-.3.2,0,.6-.2,1-.2.4,0,.9,0,1.5,0s1.1,0,1.5,0c.4,0,.7.1,1,.2.2,0,.4.2.5.3.1.1.2.3.2.5v28.9Z"/>
    <path d="M465.6,106.9c0,4.1-.5,7.7-1.6,10.7-1,3.1-2.6,5.6-4.6,7.6s-4.5,3.5-7.4,4.5c-2.9,1-6.4,1.5-10.5,1.5h-10c-.6,0-1.1-.2-1.6-.6-.5-.4-.8-1-.8-2v-42.3c0-1,.2-1.6.8-2,.5-.4,1-.6,1.6-.6h10.7c4.1,0,7.6.5,10.4,1.6,2.8,1.1,5.2,2.6,7.1,4.6s3.4,4.4,4.4,7.2c1,2.8,1.5,6,1.5,9.6ZM458.9,107.1c0-2.6-.3-5-1-7.2-.6-2.2-1.6-4.1-3-5.7-1.4-1.6-3.1-2.9-5.1-3.8s-4.7-1.4-8-1.4h-6.4v36.9h6.5c3,0,5.6-.4,7.7-1.1s3.8-1.9,5.2-3.5,2.4-3.5,3.1-5.9c.7-2.4,1-5.1,1-8.4Z"/>
    <path d="M511.7,106.9c0,4.1-.5,7.7-1.6,10.7-1,3.1-2.6,5.6-4.6,7.6s-4.5,3.5-7.4,4.5c-2.9,1-6.4,1.5-10.5,1.5h-10c-.6,0-1.1-.2-1.6-.6-.5-.4-.8-1-.8-2v-42.3c0-1,.2-1.6.8-2,.5-.4,1-.6,1.6-.6h10.7c4.1,0,7.6.5,10.4,1.6,2.8,1.1,5.2,2.6,7.1,4.6s3.4,4.4,4.4,7.2c1,2.8,1.5,6,1.5,9.6ZM505.1,107.1c0-2.6-.3-5-1-7.2-.6-2.2-1.6-4.1-3-5.7-1.4-1.6-3.1-2.9-5.1-3.8s-4.7-1.4-8-1.4h-6.4v36.9h6.5c3,0,5.6-.4,7.7-1.1s3.8-1.9,5.2-3.5,2.4-3.5,3.1-5.9c.7-2.4,1-5.1,1-8.4Z"/>
    <path d="M555.6,130.3c0,.2,0,.4-.1.5s-.3.3-.5.3c-.2,0-.6.2-1,.2-.4,0-.9,0-1.5,0s-1.1,0-1.5,0c-.4,0-.7-.1-1-.2-.2,0-.4-.2-.5-.3,0-.1-.1-.3-.1-.5v-21h-21.6v21c0,.2,0,.4-.1.5s-.3.3-.5.3c-.2,0-.6.2-1,.2-.4,0-.9,0-1.5,0s-1.1,0-1.5,0c-.4,0-.7-.1-1-.2-.2,0-.4-.2-.5-.3s-.1-.3-.1-.5v-45.5c0-.2,0-.4.1-.5s.3-.3.5-.3.6-.2,1-.2c.4,0,.9,0,1.5,0s1.1,0,1.5,0c.4,0,.7.1,1,.2s.4.2.5.3.1.3.1.5v19h21.6v-19c0-.2,0-.4.1-.5,0-.1.3-.3.5-.3s.6-.2,1-.2c.4,0,.9,0,1.5,0s1.1,0,1.5,0c.4,0,.7.1,1,.2s.4.2.5.3.1.3.1.5v45.5Z"/>
    <path d="M574.4,130.3c0,.2,0,.4-.1.5s-.3.3-.5.3c-.2,0-.6.2-1,.2-.4,0-.9,0-1.5,0s-1.1,0-1.5,0c-.4,0-.7-.1-1-.2-.2,0-.4-.2-.5-.3s-.1-.3-.1-.5v-45.5c0-.2,0-.4.2-.5.1-.1.3-.3.5-.3.3,0,.6-.2,1-.2.4,0,.9,0,1.4,0s1.1,0,1.5,0c.4,0,.7.1,1,.2s.4.2.5.3.1.3.1.5v45.5Z"/>
    <path d="M612.5,118c0,2.2-.4,4.2-1.2,5.9-.8,1.7-2,3.2-3.4,4.4-1.5,1.2-3.2,2.1-5.1,2.7-2,.6-4.1.9-6.4.9s-3.1-.1-4.4-.4c-1.4-.3-2.6-.6-3.6-1-1.1-.4-2-.8-2.7-1.2-.7-.4-1.2-.8-1.5-1.1s-.5-.7-.6-1.1c-.1-.5-.2-1.1-.2-1.8s0-1,0-1.3c0-.4.1-.6.2-.9,0-.2.2-.4.4-.5s.3-.1.5-.1c.3,0,.8.2,1.4.6.6.4,1.4.9,2.4,1.4s2.2.9,3.5,1.4c1.4.4,3,.6,4.8.6s2.6-.2,3.8-.5c1.1-.4,2.1-.9,2.9-1.6s1.4-1.5,1.9-2.5c.4-1,.7-2.1.7-3.3s-.3-2.5-.9-3.4-1.4-1.8-2.4-2.5c-1-.7-2.1-1.4-3.4-2-1.3-.6-2.6-1.2-3.9-1.8-1.3-.6-2.6-1.3-3.9-2.1s-2.4-1.6-3.4-2.7-1.8-2.2-2.4-3.6c-.6-1.4-.9-3-.9-5s.4-3.7,1.1-5.3c.7-1.5,1.7-2.8,3-3.9,1.3-1,2.8-1.8,4.6-2.4,1.8-.5,3.7-.8,5.7-.8s2.1,0,3.2.3c1.1.2,2.1.4,3,.7.9.3,1.8.6,2.5,1s1.2.7,1.4.9c.2.2.4.4.5.5,0,.1.1.3.2.5s0,.5.1.8c0,.3,0,.7,0,1.1s0,.8,0,1.2c0,.3,0,.6-.2.9,0,.2-.2.4-.3.5-.1.1-.3.2-.5.2-.3,0-.7-.2-1.3-.5-.6-.3-1.3-.7-2.1-1.2s-1.8-.8-2.9-1.2c-1.1-.4-2.4-.5-3.8-.5s-2.5.2-3.4.5-1.8.8-2.4,1.4-1.1,1.3-1.4,2.1-.5,1.7-.5,2.6c0,1.3.3,2.5.9,3.4.6,1,1.4,1.8,2.4,2.5s2.2,1.4,3.5,2c1.3.6,2.6,1.2,4,1.8,1.3.6,2.7,1.3,4,2.1,1.3.7,2.4,1.6,3.5,2.6,1,1,1.8,2.2,2.5,3.6.6,1.4.9,3,.9,4.9Z"/>
    <path d="M650.7,86.6c0,.5,0,.9,0,1.2,0,.3-.1.6-.2.8-.1.2-.2.4-.4.5s-.3.1-.5.1h-13.3v41.1c0,.2,0,.4-.1.5,0,.1-.3.3-.5.3-.2,0-.6.2-1,.2-.4,0-.9,0-1.5,0s-1.1,0-1.5,0-.7-.1-1-.2c-.2,0-.4-.2-.5-.3,0-.1-.1-.3-.1-.5v-41.1h-13.3c-.2,0-.4,0-.5-.1-.2,0-.3-.2-.4-.5,0-.2-.2-.5-.2-.8s0-.7,0-1.2,0-.9,0-1.2.1-.6.2-.9c0-.2.2-.4.4-.5.2,0,.3-.1.5-.1h33c.2,0,.4,0,.5.1s.3.3.4.5c.1.2.2.5.2.9,0,.4,0,.8,0,1.2Z"/>
    <path d="M683.9,128.6c0,.4,0,.8,0,1.2,0,.3-.1.6-.3.8-.1.2-.3.4-.4.5s-.3.1-.5.1h-22.7c-.6,0-1.1-.2-1.6-.6-.5-.4-.8-1-.8-2v-42.3c0-1,.2-1.6.8-2,.5-.4,1-.6,1.6-.6h22.5c.2,0,.4,0,.5.1.2,0,.3.3.4.5,0,.2.2.5.2.8,0,.3,0,.7,0,1.2s0,.8,0,1.2c0,.3-.1.6-.2.8s-.2.4-.4.5c-.2,0-.3.1-.5.1h-18.5v14.9h15.9c.2,0,.4,0,.5.2.2.1.3.3.4.5.1.2.2.5.2.8s0,.7,0,1.2,0,.8,0,1.1-.1.6-.2.8c-.1.2-.2.3-.4.4-.2,0-.3.1-.5.1h-15.9v17h18.8c.2,0,.4,0,.5.1s.3.2.4.5c.1.2.2.5.3.8,0,.3,0,.7,0,1.2Z"/>
    <path d="M736.6,118c0,2.2-.4,4.2-1.2,5.9-.8,1.7-2,3.2-3.4,4.4-1.5,1.2-3.2,2.1-5.1,2.7-2,.6-4.1.9-6.4.9s-3.1-.1-4.4-.4c-1.4-.3-2.6-.6-3.6-1-1.1-.4-2-.8-2.7-1.2-.7-.4-1.2-.8-1.5-1.1s-.5-.7-.6-1.1c-.1-.5-.2-1.1-.2-1.8s0-1,0-1.3c0-.4.1-.6.2-.9,0-.2.2-.4.4-.5s.3-.1.5-.1c.3,0,.8.2,1.4.6.6.4,1.4.9,2.4,1.4s2.2.9,3.5,1.4c1.4.4,3,.6,4.8.6s2.6-.2,3.8-.5c1.1-.4,2.1-.9,2.9-1.6s1.4-1.5,1.9-2.5c.4-1,.7-2.1.7-3.3s-.3-2.5-.9-3.4-1.4-1.8-2.4-2.5c-1-.7-2.1-1.4-3.4-2-1.3-.6-2.6-1.2-3.9-1.8-1.3-.6-2.6-1.3-3.9-2.1s-2.4-1.6-3.4-2.7-1.8-2.2-2.4-3.6c-.6-1.4-.9-3-.9-5s.4-3.7,1.1-5.3c.7-1.5,1.7-2.8,3-3.9,1.3-1,2.8-1.8,4.6-2.4,1.8-.5,3.7-.8,5.7-.8s2.1,0,3.2.3c1.1.2,2.1.4,3,.7.9.3,1.8.6,2.5,1s1.2.7,1.4.9c.2.2.4.4.5.5,0,.1.1.3.2.5s0,.5.1.8c0,.3,0,.7,0,1.1s0,.8,0,1.2c0,.3,0,.6-.2.9,0,.2-.2.4-.3.5-.1.1-.3.2-.5.2-.3,0-.7-.2-1.3-.5-.6-.3-1.3-.7-2.1-1.2s-1.8-.8-2.9-1.2c-1.1-.4-2.4-.5-3.8-.5s-2.5.2-3.4.5-1.8.8-2.4,1.4-1.1,1.3-1.4,2.1-.5,1.7-.5,2.6c0,1.3.3,2.5.9,3.4.6,1,1.4,1.8,2.4,2.5s2.2,1.4,3.5,2c1.3.6,2.6,1.2,4,1.8,1.3.6,2.7,1.3,4,2.1,1.3.7,2.4,1.6,3.5,2.6,1,1,1.8,2.2,2.5,3.6.6,1.4.9,3,.9,4.9Z"/>
    <path d="M785.3,107c0,3.8-.5,7.3-1.4,10.4s-2.3,5.7-4,7.9c-1.8,2.2-4,3.8-6.8,5s-5.9,1.7-9.5,1.7-6.6-.5-9.2-1.6c-2.6-1.1-4.7-2.6-6.4-4.6-1.7-2-3-4.5-3.8-7.5-.8-3-1.2-6.5-1.2-10.4s.5-7.1,1.4-10.2,2.3-5.6,4.1-7.8c1.8-2.1,4.1-3.8,6.8-4.9s5.9-1.7,9.5-1.7,6.5.5,9.1,1.6,4.7,2.6,6.5,4.6c1.7,2,3,4.5,3.8,7.5.8,3,1.3,6.4,1.3,10.2ZM778.6,107.4c0-2.7-.2-5.2-.7-7.5-.5-2.3-1.3-4.3-2.4-6-1.1-1.7-2.6-3-4.4-4-1.9-1-4.1-1.4-6.9-1.4s-5,.5-6.9,1.5c-1.9,1-3.4,2.4-4.5,4.1s-2,3.7-2.5,6c-.5,2.3-.7,4.7-.7,7.2s.2,5.3.7,7.7c.5,2.3,1.2,4.4,2.3,6.1,1.1,1.7,2.6,3,4.4,4,1.8.9,4.2,1.4,6.9,1.4s5.1-.5,6.9-1.5,3.4-2.4,4.5-4.2c1.1-1.7,2-3.8,2.5-6.1.5-2.3.7-4.7.7-7.3Z"/>
    <path d="M826.1,130.2c0,.2,0,.4-.1.5,0,.2-.3.3-.5.4s-.6.2-1,.2-1,0-1.6,0-1.6,0-2.1-.1c-.5,0-.9-.2-1.2-.4s-.5-.4-.7-.7l-17.4-23.7v23.7c0,.2,0,.3-.1.5,0,.2-.3.3-.5.4-.2,0-.6.2-1,.2-.4,0-.9,0-1.5,0s-1.1,0-1.5,0c-.4,0-.7-.1-1-.2-.2,0-.4-.2-.5-.4,0-.2-.1-.3-.1-.5v-45.5c0-.2,0-.4.1-.5s.3-.3.5-.3.6-.2,1-.2c.4,0,.9,0,1.5,0s1.1,0,1.5,0c.4,0,.7.1,1,.2s.4.2.5.3.1.3.1.5v21.1l16.8-21.1c.1-.2.3-.4.5-.5s.4-.3.7-.3c.3,0,.6-.2,1-.2.4,0,.9,0,1.6,0s1.1,0,1.5,0,.7.1.9.2.4.2.5.4c0,.1.1.3.1.5,0,.3,0,.6-.2,1s-.5.8-.9,1.3l-15.7,18.8,16.9,22.5c.4.6.7,1.1.8,1.3,0,.2.1.4.1.6Z"/>
    <path d="M869.7,129c.2.5.3,1,.3,1.3,0,.3,0,.6-.3.8-.2.2-.5.3-1,.3s-1.1,0-1.8,0-1.4,0-1.8,0c-.5,0-.8,0-1-.2-.2,0-.4-.2-.5-.3-.1-.1-.2-.3-.3-.5l-4.1-11.5h-19.7l-3.9,11.4c0,.2-.2.4-.3.6s-.3.3-.5.4c-.2.1-.6.2-1,.2s-1,0-1.7,0-1.3,0-1.7,0c-.5,0-.8-.2-1-.3-.2-.2-.3-.4-.3-.8,0-.3.1-.8.3-1.3l15.9-44c0-.3.2-.5.4-.7.2-.2.4-.3.7-.4.3,0,.7-.2,1.2-.2.5,0,1.1,0,1.8,0s1.4,0,1.9,0c.5,0,.9.1,1.2.2.3,0,.6.2.7.4.2.2.3.4.4.7l15.9,44ZM849.3,90.2h0l-8.2,23.6h16.5l-8.3-23.6Z"/>
    <path d="M327,178.9c0,4.1-.5,7.7-1.6,10.7-1,3.1-2.6,5.6-4.6,7.6s-4.5,3.5-7.4,4.5c-2.9,1-6.4,1.5-10.5,1.5h-10c-.6,0-1.1-.2-1.6-.6-.5-.4-.8-1-.8-2v-42.3c0-1,.2-1.6.8-2,.5-.4,1-.6,1.6-.6h10.7c4.1,0,7.6.5,10.4,1.6,2.8,1.1,5.2,2.6,7.1,4.6s3.4,4.4,4.4,7.2c1,2.8,1.5,6,1.5,9.6ZM320.4,179.1c0-2.6-.3-5-1-7.2-.6-2.2-1.6-4.1-3-5.7-1.4-1.6-3.1-2.9-5.1-3.8-2.1-.9-4.7-1.4-8-1.4h-6.4v36.9h6.5c3,0,5.6-.4,7.7-1.1,2.1-.8,3.8-1.9,5.2-3.5s2.4-3.5,3.1-5.9c.7-2.4,1-5.1,1-8.4Z"/>
    <path d="M363.1,200.6c0,.4,0,.8,0,1.2,0,.3-.1.6-.3.8-.1.2-.3.4-.4.5s-.3.1-.5.1h-22.7c-.6,0-1.1-.2-1.6-.6-.5-.4-.8-1-.8-2v-42.3c0-1,.2-1.6.8-2,.5-.4,1-.6,1.6-.6h22.5c.2,0,.4,0,.5.1.2,0,.3.3.4.5,0,.2.2.5.2.8,0,.3,0,.7,0,1.2s0,.8,0,1.2c0,.3-.1.6-.2.8,0,.2-.2.4-.4.5-.2,0-.3.1-.5.1h-18.5v14.9h15.9c.2,0,.4,0,.5.2.2.1.3.3.4.5.1.2.2.5.2.8,0,.3,0,.7,0,1.2s0,.8,0,1.1c0,.3-.1.6-.2.8-.1.2-.2.3-.4.4-.2,0-.3.1-.5.1h-15.9v17h18.8c.2,0,.4,0,.5.1s.3.2.4.5c.1.2.2.5.3.8,0,.3,0,.7,0,1.2Z"/>
    <path d="M415.2,158.6c0,.5,0,.9,0,1.2,0,.3-.1.6-.3.8-.1.2-.3.4-.4.5s-.3.1-.5.1h-17.4v16.1h16.4c.2,0,.3,0,.5.1.2,0,.3.2.4.4.1.2.2.5.3.8,0,.3,0,.8,0,1.3s0,.9,0,1.2c0,.3-.1.6-.3.8-.1.2-.3.4-.4.5-.2.1-.3.2-.5.2h-16.4v19.7c0,.2,0,.3-.1.5,0,.2-.3.3-.5.4-.2,0-.6.2-1,.2-.4,0-.9,0-1.5,0s-1.1,0-1.5,0c-.4,0-.7-.1-1-.2-.2,0-.4-.2-.5-.4,0-.2-.1-.3-.1-.5v-43.9c0-1,.2-1.6.8-2,.5-.4,1-.6,1.6-.6h21.3c.2,0,.3,0,.5.1s.3.3.4.5c.1.2.2.5.3.9,0,.4,0,.8,0,1.2Z"/>
    <path d="M456.3,202.3c0,.2,0,.4-.1.5s-.2.3-.5.4-.6.2-1,.2-1,0-1.8,0-1.2,0-1.6,0c-.4,0-.7-.1-1-.2-.2-.1-.4-.3-.6-.5-.1-.2-.3-.4-.3-.7l-4.4-11.2c-.5-1.3-1-2.4-1.6-3.5-.5-1.1-1.2-2-2-2.7-.8-.8-1.6-1.4-2.7-1.8s-2.3-.6-3.7-.6h-4.2v20.2c0,.2,0,.4-.2.5-.1.1-.3.3-.5.3-.2,0-.5.2-1,.2-.4,0-.9,0-1.5,0s-1.1,0-1.5,0c-.4,0-.7-.1-1-.2-.2,0-.4-.2-.5-.3,0-.1-.1-.3-.1-.5v-43.9c0-1,.2-1.6.8-2,.5-.4,1-.6,1.6-.6h10.1c1.2,0,2.2,0,3,0,.8,0,1.5.1,2.1.2,1.8.3,3.4.8,4.9,1.5,1.4.7,2.6,1.6,3.5,2.6s1.7,2.3,2.1,3.6c.5,1.4.7,2.9.7,4.5s-.2,3-.6,4.3c-.4,1.3-1,2.4-1.8,3.3s-1.8,1.8-2.9,2.5c-1.1.7-2.4,1.3-3.8,1.8.8.3,1.5.8,2.1,1.3.6.5,1.2,1.2,1.8,1.9.5.7,1.1,1.6,1.6,2.5.5,1,1,2,1.5,3.2l4.2,10.4c.3.9.6,1.5.7,1.8,0,.4.1.6.1.8ZM446.9,169c0-1.9-.4-3.4-1.2-4.7-.8-1.3-2.2-2.2-4.2-2.8-.6-.2-1.3-.3-2.1-.4-.8,0-1.8-.1-3-.1h-5.3v16h6.2c1.7,0,3.1-.2,4.3-.6,1.2-.4,2.2-1,3-1.7.8-.7,1.4-1.6,1.8-2.5.4-1,.6-2,.6-3.2Z"/>
    <path d="M501,201c.2.5.3,1,.3,1.3,0,.3,0,.6-.3.8-.2.2-.5.3-1,.3s-1.1,0-1.8,0-1.4,0-1.8,0c-.5,0-.8,0-1-.2-.2,0-.4-.2-.5-.3-.1-.1-.2-.3-.3-.5l-4.1-11.5h-19.7l-3.9,11.4c0,.2-.2.4-.3.6s-.3.3-.5.4c-.2.1-.6.2-1,.2s-1,0-1.7,0-1.3,0-1.7,0c-.5,0-.8-.2-1-.3-.2-.2-.3-.4-.3-.8,0-.3.1-.8.3-1.3l15.9-44c0-.3.2-.5.4-.7.2-.2.4-.3.7-.4.3,0,.7-.2,1.2-.2.5,0,1.1,0,1.8,0s1.4,0,1.9,0c.5,0,.9.1,1.2.2.3,0,.6.2.7.4.2.2.3.4.4.7l15.9,44ZM480.6,162.2h0l-8.2,23.6h16.5l-8.3-23.6Z"/>
    <path d="M544.7,200.6c0,.5,0,.9-.2,1.2-.2.3-.4.6-.6.8-.3.2-.6.4-.9.5-.3,0-.7.1-1,.1h-2.1c-.7,0-1.2,0-1.7-.2s-1-.4-1.4-.7c-.4-.4-.9-.8-1.3-1.4-.4-.6-.9-1.4-1.4-2.3l-14.5-27c-.8-1.4-1.5-2.9-2.3-4.4s-1.5-3-2.1-4.4h0c0,1.8,0,3.6.1,5.4s0,3.7,0,5.5v28.6c0,.2,0,.3-.2.5-.1.2-.3.3-.5.4-.2,0-.6.2-1,.2s-.9,0-1.5,0-1.1,0-1.5,0-.7-.1-.9-.2c-.2,0-.4-.2-.5-.4-.1-.2-.2-.3-.2-.5v-43.7c0-1,.3-1.7.8-2.1.6-.4,1.2-.6,1.8-.6h3.1c.7,0,1.3,0,1.8.2.5.1.9.3,1.3.6.4.3.8.7,1.1,1.2.4.5.7,1.1,1.2,1.9l11.1,20.8c.7,1.3,1.3,2.5,2,3.7.6,1.2,1.2,2.4,1.8,3.6s1.2,2.3,1.8,3.5c.6,1.1,1.2,2.3,1.7,3.4h0c0-1.9,0-3.9,0-6,0-2.1,0-4.1,0-6v-25.7c0-.2,0-.3.2-.5.1-.1.3-.3.5-.4.2-.1.6-.2,1-.2s.9,0,1.6,0,1.1,0,1.5,0,.7.1,1,.2c.2.1.4.2.5.4.1.1.2.3.2.5v43.7Z"/>
    <path d="M588.9,196.5c0,.4,0,.7,0,1s0,.5-.1.8-.1.4-.2.6c0,.2-.3.4-.5.6-.2.2-.8.6-1.5,1.1-.8.5-1.8,1-2.9,1.5-1.2.5-2.5.9-4,1.2-1.5.3-3.1.5-4.9.5-3.1,0-5.9-.5-8.3-1.5-2.5-1-4.6-2.5-6.3-4.5s-3.1-4.5-4-7.4c-.9-2.9-1.4-6.3-1.4-10.2s.5-7.4,1.5-10.5c1-3.1,2.4-5.7,4.3-7.8,1.8-2.1,4-3.8,6.6-4.9,2.6-1.1,5.4-1.7,8.5-1.7s2.7.1,4,.4c1.3.3,2.5.6,3.6,1,1.1.4,2.1.8,2.9,1.4.9.5,1.4.9,1.8,1.3.3.3.5.6.6.8,0,.2.2.4.2.6,0,.2.1.5.1.8,0,.3,0,.7,0,1.1s0,.9,0,1.2c0,.3-.1.6-.2.9s-.2.4-.3.5c-.1.1-.3.2-.5.2-.3,0-.8-.2-1.4-.7-.6-.5-1.4-1-2.4-1.6-1-.6-2.1-1.1-3.5-1.6-1.4-.5-3-.7-5-.7s-4,.4-5.8,1.3c-1.7.8-3.2,2.1-4.4,3.7-1.2,1.6-2.2,3.6-2.9,6-.7,2.4-1,5-1,8.1s.3,5.7,1,8c.6,2.3,1.6,4.2,2.8,5.8,1.2,1.6,2.7,2.7,4.5,3.5,1.8.8,3.8,1.2,6,1.2s3.5-.2,5-.7c1.4-.5,2.6-1,3.6-1.6s1.8-1.1,2.4-1.6c.6-.5,1.1-.7,1.5-.7s.3,0,.4.1.2.2.3.4c0,.2.1.5.2.9,0,.4,0,.8,0,1.4Z"/>
    <path d="M623.6,200.6c0,.4,0,.8,0,1.2,0,.3-.1.6-.3.8-.1.2-.3.4-.4.5s-.3.1-.5.1h-22.7c-.6,0-1.1-.2-1.6-.6-.5-.4-.8-1-.8-2v-42.3c0-1,.2-1.6.8-2,.5-.4,1-.6,1.6-.6h22.5c.2,0,.4,0,.5.1.2,0,.3.3.4.5,0,.2.2.5.2.8,0,.3,0,.7,0,1.2s0,.8,0,1.2c0,.3-.1.6-.2.8s-.2.4-.4.5c-.2,0-.3.1-.5.1h-18.5v14.9h15.9c.2,0,.4,0,.5.2.2.1.3.3.4.5.1.2.2.5.2.8s0,.7,0,1.2,0,.8,0,1.1-.1.6-.2.8c-.1.2-.2.3-.4.4-.2,0-.3.1-.5.1h-15.9v17h18.8c.2,0,.4,0,.5.1s.3.2.4.5c.1.2.2.5.3.8,0,.3,0,.7,0,1.2Z"/>
  </g>
  <path class="st1" d="M252.7.6v214.1"/>
  <path class="st0" d="M173.1,79.3h-.4c5.8-9.2,9.9-22.8-1.6-37.8-15.8-17.5-33.4-8.3-40.9-4.4h0c-4.9-17-14.8-25.6-29.4-25.6-23.2.7-29.6,21.6-30.6,25.5-20.8-9.2-33.9-3-40,1.6-15.3,13.9-7.9,30.2-3.4,40l.3.7C9.7,85.2,1.2,94.7.3,108.9c-.2,20.9,19.3,27.6,26.5,29.9-6.6,15.7-6,28.2,2.1,39.5,8.5,9.8,22.3,10.6,40.9,2.4,4.7,16.5,15.7,26.4,29.6,26.7,20.5-.7,26.9-18.3,29.7-26.6,14.5,9.6,26.3,9,39.5-1.9,16.4-15.8,7.4-32.5,3.2-39.9,22.9-5.5,26.4-19,27-30.2h0c.2-21.1-17.9-27-25.7-29.5ZM153.8,105.5h0c-1.7-3.5-5.3-10.5-14.5-12.4,1.4-2.2,5.1-9.6.8-20.2,4.3.2,18.2,2.3,26.7,8.1-.4,6.1-5,18.9-13,24.4ZM153.7,112.5c2,1.5,9.2,8.1,13.2,25.7-4.6,3.3-13.9,8.2-26.2,7,1.4-3.6,3.7-10.5-1.7-19.8,3.3-.6,10.9-2.5,14.8-12.9ZM134.6,94.5c0,.2,0,.5.2.6,2.7,1.3,13,7.8,16.5,14.3-1.1,2-7.4,8.6-17.1,13.8-.2,0-.3.3-.2.5,0,.3.1.7.2,1.1.7,3.5,2.3,11.7,1.8,20.6-2.1.8-10.2,1.5-21.6-2.1-.2,0-.4,0-.6.2-.4.6-.9,1.3-1.4,2.1-2.9,4.3-6.8,10.2-13.5,14.9-1.9-1.2-9.9-10.4-13.2-16.5,0-.2-.3-.3-.4-.3s0,0,0,0h-.6c-3.3.6-10.1,1.8-21.5,2.1-.4-2.8-.7-14,1.4-22.1,0-.2,0-.5-.3-.6-2.3-.9-11.8-7.4-16.5-14.3,2.8-3.3,12-10.7,17.3-13.9.2-.1.3-.3.2-.6-1-3.2-2.4-11.3-1.9-21.9,5,0,14.8.2,21.9,2.2.2,0,.4,0,.6-.2,2.6-4.3,8.5-12.6,14.4-16.8,2.3,1.7,8.2,7.4,13.3,16.5.1.2.4.3.6.2,0,0,10.2-3.4,22.8-1.4.7,2.8,0,15.3-2.3,21.4ZM45.7,112.9h0c1.7,3.5,5.3,10.6,14.5,12.4-1.4,2.2-5.1,9.6-.8,20.2-4.3-.2-18.2-2.3-26.7-8.1.5-6.1,5-18.9,13-24.4ZM45.7,105.9c-2-1.5-9.2-8.1-13.2-25.7,4.6-3.3,13.9-8.2,26.2-7-1.4,3.6-3.7,10.5,1.7,19.8-3.3.6-10.9,2.5-14.8,12.9ZM168.2,77.2c-7.3-6.6-15.1-10-22.9-10s-2.5,0-3.7.2c.8-2.8,2.2-12.6-9.6-26.4,5.4-2.3,19.1-4.7,36,.9,2.8,7.6,6.3,21.9.3,35.2ZM135.8,68.3c-3.6-1.4-10.5-3.7-19.8,1.7-.6-3.3-2.5-10.9-12.9-14.8,1.5-2,8.1-9.2,25.7-13.2,3.3,4.6,8.3,13.9,7,26.2ZM99.8,50.3c-1.4-2.5-7.4-10.5-25.5-11.9,2.2-5.4,10.2-16.8,26.1-24.8,7.3,3.4,19.9,11,25.1,24.7-11.3.6-20.2,4.7-25.7,12ZM96,55.2c-3.4,1.7-10.5,5.3-12.3,14.5-1.4-.9-5.1-2.8-10.5-2.8s-6.1.5-9.7,2c.2-4.3,2.3-18.2,8.1-26.7,6.1.5,18.9,5,24.4,13h0ZM58.2,67.7c-2.8-.8-12.6-2.2-26.4,9.6-2.3-5.5-4.7-19.1.9-36,7.6-2.8,21.9-6.3,35.2-.3-7.6,8.4-10.9,17.6-9.7,26.7ZM41,109.3c-2.5,1.4-10.5,7.4-11.9,25.5-5.5-2.2-16.8-10.2-24.8-26.1,3.4-7.3,11-19.9,24.7-25.1.6,11.3,4.7,20.2,12,25.7ZM31.7,141.2c8.4,7.6,17.6,10.9,26.7,9.7-.8,2.8-2.2,12.6,9.6,26.4-5.4,2.3-19.1,4.7-36-.9-2.8-7.6-6.3-21.9-.3-35.2ZM63.7,150.1c3.6,1.4,10.5,3.7,19.8-1.7.6,3.3,2.5,10.9,12.9,14.8-1.5,2-8.1,9.2-25.7,13.2-3.3-4.6-8.2-13.9-7-26.2ZM100,168.1c1.4,2.5,7.4,10.5,25.5,11.9-2.2,5.5-10.2,16.8-26.1,24.8-7.3-3.4-19.9-11-25.1-24.7,11.3-.6,20.2-4.7,25.7-12ZM103.4,163.2c3.4-1.7,10.5-5.3,12.3-14.5,2.2,1.4,9.6,5.1,20.2.8-.2,4.3-2.3,18.2-8.1,26.7-6.1-.4-18.9-5-24.4-13h0ZM141.6,150.8c2.8.8,12.6,2.2,26.4-9.6,2.3,5.4,4.7,19.1-.9,36-7.6,2.8-21.9,6.3-35.2.3,7.6-8.4,11-17.6,9.7-26.7ZM170.8,134.8c-.6-11.3-4.7-20.2-12-25.7,2.5-1.4,10.5-7.4,11.9-25.5,5.4,2.2,16.8,10.2,24.8,26.1-3.4,7.3-11,19.9-24.7,25.1Z"/>
</svg>